<?xml version="1.0" encoding="UTF-8" standalone="no"?>
<!DOCTYPE svg PUBLIC "-//W3C//DTD SVG 1.1//EN" "http://www.w3.org/Graphics/SVG/1.1/DTD/svg11.dtd">
<svg width="100%" height="100%" viewBox="0 0 218 60" version="1.1" xmlns="http://www.w3.org/2000/svg" xmlns:xlink="http://www.w3.org/1999/xlink" xml:space="preserve" xmlns:serif="http://www.serif.com/" style="fill-rule:evenodd;clip-rule:evenodd;stroke-linejoin:round;stroke-miterlimit:2;">
    <g transform="matrix(1,0,0,1,-1392.17392,-1986.716535)">
        <g transform="matrix(1,0,0,1,-54,0)">
            <g transform="matrix(1,0,0,1,-1.82608,-0.283465)">
                <g transform="matrix(0.564864,0,0,0.564864,684.374233,981.245373)">
                    <g transform="matrix(50,0,0,50,1432.882293,1830.037581)">
                        <path d="M0.069,-0.714L0.069,-0L0.226,-0L0.226,-0.23L0.316,-0.321L0.531,-0L0.728,-0L0.422,-0.432L0.701,-0.714L0.505,-0.714L0.226,-0.418L0.226,-0.714L0.069,-0.714Z" style="fill:white;fill-rule:nonzero;"/>
                    </g>
                    <g transform="matrix(50,0,0,50,1468.982293,1830.037581)">
                        <path d="M0.18,-0.258C0.18,-0.279 0.182,-0.299 0.186,-0.319C0.19,-0.339 0.197,-0.357 0.207,-0.372C0.216,-0.387 0.229,-0.4 0.245,-0.41C0.261,-0.419 0.281,-0.424 0.305,-0.424C0.329,-0.424 0.349,-0.419 0.365,-0.41C0.382,-0.4 0.395,-0.387 0.405,-0.372C0.414,-0.357 0.421,-0.339 0.425,-0.319C0.429,-0.299 0.431,-0.279 0.431,-0.258C0.431,-0.237 0.429,-0.217 0.425,-0.198C0.421,-0.178 0.414,-0.16 0.405,-0.144C0.395,-0.129 0.382,-0.116 0.365,-0.107C0.349,-0.098 0.329,-0.093 0.305,-0.093C0.281,-0.093 0.261,-0.098 0.245,-0.107C0.229,-0.116 0.216,-0.129 0.207,-0.144C0.197,-0.16 0.19,-0.178 0.186,-0.198C0.182,-0.217 0.18,-0.237 0.18,-0.258ZM0.038,-0.258C0.038,-0.217 0.044,-0.179 0.057,-0.146C0.07,-0.113 0.088,-0.084 0.111,-0.06C0.134,-0.037 0.162,-0.019 0.195,-0.006C0.228,0.007 0.264,0.013 0.305,0.013C0.346,0.013 0.383,0.007 0.416,-0.006C0.449,-0.019 0.477,-0.037 0.5,-0.06C0.523,-0.084 0.541,-0.113 0.554,-0.146C0.567,-0.179 0.573,-0.217 0.573,-0.258C0.573,-0.299 0.567,-0.337 0.554,-0.37C0.541,-0.404 0.523,-0.433 0.5,-0.457C0.477,-0.48 0.449,-0.498 0.416,-0.512C0.383,-0.525 0.346,-0.531 0.305,-0.531C0.264,-0.531 0.228,-0.525 0.195,-0.512C0.162,-0.498 0.134,-0.48 0.111,-0.457C0.088,-0.433 0.07,-0.404 0.057,-0.37C0.044,-0.337 0.038,-0.299 0.038,-0.258Z" style="fill:white;fill-rule:nonzero;"/>
                    </g>
                    <g transform="matrix(50,0,0,50,1499.532293,1830.037581)">
                        <path d="M0.054,-0.517L0.054,-0L0.196,-0L0.196,-0.271C0.196,-0.324 0.205,-0.361 0.222,-0.385C0.239,-0.407 0.267,-0.419 0.306,-0.419C0.34,-0.419 0.364,-0.409 0.377,-0.388C0.39,-0.366 0.397,-0.335 0.397,-0.292L0.397,-0L0.539,-0L0.539,-0.318C0.539,-0.35 0.536,-0.379 0.53,-0.406C0.525,-0.432 0.515,-0.454 0.501,-0.473C0.487,-0.491 0.468,-0.505 0.444,-0.515C0.419,-0.526 0.388,-0.531 0.35,-0.531C0.32,-0.531 0.291,-0.524 0.262,-0.511C0.233,-0.497 0.21,-0.475 0.192,-0.445L0.189,-0.445L0.189,-0.517L0.054,-0.517Z" style="fill:white;fill-rule:nonzero;"/>
                    </g>
                    <g transform="matrix(50,0,0,50,1529.182293,1830.037581)">
                        <path d="M0.085,-0.422L0.085,-0L0.227,-0L0.227,-0.422L0.325,-0.422L0.325,-0.517L0.227,-0.517L0.227,-0.548C0.227,-0.569 0.231,-0.584 0.24,-0.594C0.248,-0.603 0.262,-0.607 0.281,-0.607C0.299,-0.607 0.316,-0.606 0.333,-0.604L0.333,-0.71C0.321,-0.711 0.309,-0.712 0.296,-0.713C0.283,-0.713 0.271,-0.714 0.258,-0.714C0.2,-0.714 0.157,-0.699 0.128,-0.67C0.099,-0.641 0.085,-0.603 0.085,-0.557L0.085,-0.517L0,-0.517L0,-0.422L0.085,-0.422Z" style="fill:white;fill-rule:nonzero;"/>
                    </g>
                    <g transform="matrix(50,0,0,50,1545.832293,1830.037581)">
                        <path d="M0.402,-0.314L0.171,-0.314C0.172,-0.324 0.174,-0.335 0.177,-0.348C0.181,-0.361 0.188,-0.373 0.197,-0.384C0.206,-0.395 0.217,-0.405 0.233,-0.413C0.248,-0.42 0.266,-0.424 0.289,-0.424C0.324,-0.424 0.349,-0.415 0.366,-0.396C0.384,-0.377 0.395,-0.35 0.402,-0.314ZM0.171,-0.224L0.544,-0.224C0.547,-0.264 0.543,-0.302 0.534,-0.339C0.525,-0.376 0.509,-0.408 0.488,-0.437C0.468,-0.466 0.441,-0.488 0.408,-0.506C0.375,-0.523 0.337,-0.531 0.293,-0.531C0.254,-0.531 0.218,-0.524 0.185,-0.51C0.153,-0.496 0.125,-0.477 0.102,-0.453C0.079,-0.428 0.061,-0.399 0.048,-0.366C0.035,-0.333 0.029,-0.297 0.029,-0.258C0.029,-0.218 0.035,-0.181 0.048,-0.148C0.06,-0.115 0.077,-0.086 0.1,-0.062C0.123,-0.038 0.15,-0.019 0.183,-0.007C0.216,0.007 0.252,0.013 0.293,0.013C0.352,0.013 0.402,-0 0.443,-0.027C0.484,-0.054 0.515,-0.098 0.535,-0.16L0.41,-0.16C0.405,-0.144 0.393,-0.129 0.372,-0.115C0.351,-0.1 0.327,-0.093 0.298,-0.093C0.258,-0.093 0.227,-0.103 0.206,-0.124C0.185,-0.145 0.173,-0.178 0.171,-0.224Z" style="fill:white;fill-rule:nonzero;"/>
                    </g>
                    <g transform="matrix(50,0,0,50,1574.532293,1830.037581)">
                        <path d="M0.054,-0.517L0.054,-0L0.196,-0L0.196,-0.233C0.196,-0.256 0.198,-0.278 0.203,-0.298C0.208,-0.318 0.215,-0.335 0.227,-0.351C0.238,-0.365 0.252,-0.377 0.27,-0.386C0.288,-0.395 0.31,-0.399 0.336,-0.399C0.345,-0.399 0.354,-0.399 0.363,-0.398C0.372,-0.397 0.38,-0.395 0.387,-0.394L0.387,-0.526C0.376,-0.529 0.365,-0.531 0.356,-0.531C0.338,-0.531 0.321,-0.528 0.304,-0.523C0.287,-0.518 0.272,-0.51 0.257,-0.501C0.242,-0.491 0.229,-0.479 0.218,-0.466C0.207,-0.452 0.198,-0.437 0.191,-0.421L0.189,-0.421L0.189,-0.517L0.054,-0.517Z" style="fill:white;fill-rule:nonzero;"/>
                    </g>
                    <g transform="matrix(50,0,0,50,1593.082293,1830.037581)">
                        <path d="M0.402,-0.314L0.171,-0.314C0.172,-0.324 0.174,-0.335 0.177,-0.348C0.181,-0.361 0.188,-0.373 0.197,-0.384C0.206,-0.395 0.217,-0.405 0.233,-0.413C0.248,-0.42 0.266,-0.424 0.289,-0.424C0.324,-0.424 0.349,-0.415 0.366,-0.396C0.384,-0.377 0.395,-0.35 0.402,-0.314ZM0.171,-0.224L0.544,-0.224C0.547,-0.264 0.543,-0.302 0.534,-0.339C0.525,-0.376 0.509,-0.408 0.488,-0.437C0.468,-0.466 0.441,-0.488 0.408,-0.506C0.375,-0.523 0.337,-0.531 0.293,-0.531C0.254,-0.531 0.218,-0.524 0.185,-0.51C0.153,-0.496 0.125,-0.477 0.102,-0.453C0.079,-0.428 0.061,-0.399 0.048,-0.366C0.035,-0.333 0.029,-0.297 0.029,-0.258C0.029,-0.218 0.035,-0.181 0.048,-0.148C0.06,-0.115 0.077,-0.086 0.1,-0.062C0.123,-0.038 0.15,-0.019 0.183,-0.007C0.216,0.007 0.252,0.013 0.293,0.013C0.352,0.013 0.402,-0 0.443,-0.027C0.484,-0.054 0.515,-0.098 0.535,-0.16L0.41,-0.16C0.405,-0.144 0.393,-0.129 0.372,-0.115C0.351,-0.1 0.327,-0.093 0.298,-0.093C0.258,-0.093 0.227,-0.103 0.206,-0.124C0.185,-0.145 0.173,-0.178 0.171,-0.224Z" style="fill:white;fill-rule:nonzero;"/>
                    </g>
                    <g transform="matrix(50,0,0,50,1621.782293,1830.037581)">
                        <path d="M0.054,-0.517L0.054,-0L0.196,-0L0.196,-0.271C0.196,-0.324 0.205,-0.361 0.222,-0.385C0.239,-0.407 0.267,-0.419 0.306,-0.419C0.34,-0.419 0.364,-0.409 0.377,-0.388C0.39,-0.366 0.397,-0.335 0.397,-0.292L0.397,-0L0.539,-0L0.539,-0.318C0.539,-0.35 0.536,-0.379 0.53,-0.406C0.525,-0.432 0.515,-0.454 0.501,-0.473C0.487,-0.491 0.468,-0.505 0.444,-0.515C0.419,-0.526 0.388,-0.531 0.35,-0.531C0.32,-0.531 0.291,-0.524 0.262,-0.511C0.233,-0.497 0.21,-0.475 0.192,-0.445L0.189,-0.445L0.189,-0.517L0.054,-0.517Z" style="fill:white;fill-rule:nonzero;"/>
                    </g>
                    <g transform="matrix(50,0,0,50,1651.432293,1830.037581)">
                        <path d="M0.022,-0.107L0.022,-0L0.497,-0L0.497,-0.107L0.209,-0.107L0.478,-0.41L0.478,-0.517L0.042,-0.517L0.042,-0.41L0.291,-0.41L0.022,-0.107Z" style="fill:white;fill-rule:nonzero;"/>
                    </g>
                    <g transform="matrix(50,0,0,50,1432.882293,1870.607789)">
                        <path d="M0.421,-0.26C0.421,-0.239 0.419,-0.218 0.415,-0.198C0.411,-0.178 0.404,-0.16 0.395,-0.144C0.386,-0.129 0.373,-0.116 0.357,-0.107C0.342,-0.098 0.322,-0.093 0.299,-0.093C0.277,-0.093 0.258,-0.098 0.242,-0.107C0.227,-0.117 0.214,-0.13 0.204,-0.145C0.193,-0.161 0.186,-0.179 0.181,-0.199C0.176,-0.219 0.174,-0.239 0.174,-0.259C0.174,-0.28 0.176,-0.301 0.18,-0.321C0.185,-0.34 0.192,-0.358 0.202,-0.373C0.211,-0.388 0.224,-0.401 0.24,-0.41C0.256,-0.419 0.276,-0.424 0.299,-0.424C0.322,-0.424 0.342,-0.419 0.357,-0.41C0.372,-0.401 0.385,-0.389 0.395,-0.373C0.404,-0.359 0.411,-0.341 0.415,-0.322C0.419,-0.302 0.421,-0.281 0.421,-0.26ZM0.423,-0.066L0.423,-0L0.558,-0L0.558,-0.714L0.416,-0.714L0.416,-0.454L0.414,-0.454C0.398,-0.479 0.376,-0.498 0.349,-0.512C0.321,-0.525 0.292,-0.531 0.261,-0.531C0.223,-0.531 0.19,-0.523 0.161,-0.509C0.132,-0.494 0.108,-0.474 0.089,-0.449C0.07,-0.424 0.056,-0.396 0.046,-0.363C0.037,-0.331 0.032,-0.298 0.032,-0.263C0.032,-0.227 0.037,-0.192 0.046,-0.159C0.056,-0.126 0.07,-0.096 0.089,-0.071C0.108,-0.045 0.133,-0.024 0.162,-0.009C0.191,0.006 0.225,0.013 0.264,0.013C0.298,0.013 0.329,0.007 0.355,-0.005C0.383,-0.018 0.404,-0.038 0.421,-0.066L0.423,-0.066Z" style="fill:white;fill-rule:nonzero;"/>
                    </g>
                    <g transform="matrix(50,0,0,50,1463.432293,1870.607789)">
                        <path d="M0.402,-0.314L0.171,-0.314C0.172,-0.324 0.174,-0.335 0.177,-0.348C0.181,-0.361 0.188,-0.373 0.197,-0.384C0.206,-0.395 0.217,-0.405 0.233,-0.413C0.248,-0.42 0.266,-0.424 0.289,-0.424C0.324,-0.424 0.349,-0.415 0.366,-0.396C0.384,-0.377 0.395,-0.35 0.402,-0.314ZM0.171,-0.224L0.544,-0.224C0.547,-0.264 0.543,-0.302 0.534,-0.339C0.525,-0.376 0.509,-0.408 0.488,-0.437C0.468,-0.466 0.441,-0.488 0.408,-0.506C0.375,-0.523 0.337,-0.531 0.293,-0.531C0.254,-0.531 0.218,-0.524 0.185,-0.51C0.153,-0.496 0.125,-0.477 0.102,-0.453C0.079,-0.428 0.061,-0.399 0.048,-0.366C0.035,-0.333 0.029,-0.297 0.029,-0.258C0.029,-0.218 0.035,-0.181 0.048,-0.148C0.06,-0.115 0.077,-0.086 0.1,-0.062C0.123,-0.038 0.15,-0.019 0.183,-0.007C0.216,0.007 0.252,0.013 0.293,0.013C0.352,0.013 0.402,-0 0.443,-0.027C0.484,-0.054 0.515,-0.098 0.535,-0.16L0.41,-0.16C0.405,-0.144 0.393,-0.129 0.372,-0.115C0.351,-0.1 0.327,-0.093 0.298,-0.093C0.258,-0.093 0.227,-0.103 0.206,-0.124C0.185,-0.145 0.173,-0.178 0.171,-0.224Z" style="fill:white;fill-rule:nonzero;"/>
                    </g>
                    <g transform="matrix(50,0,0,50,1492.132293,1870.607789)">
                        <path d="M0.054,-0.517L0.054,-0L0.196,-0L0.196,-0.233C0.196,-0.256 0.198,-0.278 0.203,-0.298C0.208,-0.318 0.215,-0.335 0.227,-0.351C0.238,-0.365 0.252,-0.377 0.27,-0.386C0.288,-0.395 0.31,-0.399 0.336,-0.399C0.345,-0.399 0.354,-0.399 0.363,-0.398C0.372,-0.397 0.38,-0.395 0.387,-0.394L0.387,-0.526C0.376,-0.529 0.365,-0.531 0.356,-0.531C0.338,-0.531 0.321,-0.528 0.304,-0.523C0.287,-0.518 0.272,-0.51 0.257,-0.501C0.242,-0.491 0.229,-0.479 0.218,-0.466C0.207,-0.452 0.198,-0.437 0.191,-0.421L0.189,-0.421L0.189,-0.517L0.054,-0.517Z" style="fill:white;fill-rule:nonzero;"/>
                    </g>
                    <g transform="matrix(50,0,0,50,1525.482293,1870.607789)">
                        <path d="M0.069,-0.714L0.069,-0L0.216,-0L0.216,-0.478L0.218,-0.478L0.515,-0L0.672,-0L0.672,-0.714L0.525,-0.714L0.525,-0.235L0.523,-0.235L0.225,-0.714L0.069,-0.714Z" style="fill:white;fill-rule:nonzero;"/>
                    </g>
                    <g transform="matrix(50,0,0,50,1562.532293,1870.607789)">
                        <path d="M0.048,-0.358C0.05,-0.391 0.058,-0.419 0.073,-0.441C0.088,-0.463 0.106,-0.481 0.129,-0.494C0.152,-0.507 0.177,-0.517 0.206,-0.522C0.234,-0.528 0.262,-0.531 0.291,-0.531C0.317,-0.531 0.343,-0.529 0.37,-0.525C0.397,-0.522 0.421,-0.515 0.443,-0.504C0.465,-0.493 0.483,-0.478 0.497,-0.46C0.511,-0.44 0.518,-0.415 0.518,-0.384L0.518,-0.115C0.518,-0.092 0.519,-0.069 0.522,-0.048C0.525,-0.027 0.529,-0.011 0.536,-0L0.392,-0C0.389,-0.008 0.387,-0.016 0.386,-0.025C0.384,-0.033 0.383,-0.041 0.382,-0.05C0.359,-0.027 0.333,-0.01 0.302,-0.001C0.271,0.008 0.24,0.013 0.208,0.013C0.183,0.013 0.16,0.01 0.139,0.004C0.118,-0.002 0.099,-0.011 0.083,-0.024C0.067,-0.037 0.054,-0.053 0.045,-0.072C0.036,-0.091 0.032,-0.114 0.032,-0.141C0.032,-0.17 0.037,-0.195 0.048,-0.213C0.058,-0.233 0.071,-0.248 0.088,-0.259C0.104,-0.27 0.123,-0.279 0.144,-0.285C0.165,-0.29 0.186,-0.295 0.207,-0.298C0.228,-0.301 0.249,-0.304 0.27,-0.306C0.291,-0.308 0.309,-0.311 0.325,-0.315C0.341,-0.319 0.354,-0.325 0.363,-0.333C0.372,-0.34 0.377,-0.351 0.376,-0.366C0.376,-0.381 0.373,-0.394 0.368,-0.403C0.363,-0.412 0.357,-0.419 0.349,-0.423C0.34,-0.428 0.331,-0.432 0.32,-0.433C0.308,-0.435 0.297,-0.436 0.284,-0.436C0.256,-0.436 0.234,-0.43 0.218,-0.418C0.202,-0.406 0.193,-0.386 0.19,-0.358L0.048,-0.358ZM0.376,-0.253C0.37,-0.248 0.362,-0.243 0.353,-0.24C0.345,-0.238 0.335,-0.235 0.325,-0.233C0.314,-0.231 0.303,-0.229 0.292,-0.228C0.281,-0.227 0.269,-0.225 0.258,-0.223C0.247,-0.221 0.237,-0.218 0.227,-0.215C0.216,-0.212 0.207,-0.207 0.2,-0.202C0.192,-0.196 0.186,-0.189 0.181,-0.18C0.176,-0.171 0.174,-0.16 0.174,-0.147C0.174,-0.134 0.176,-0.124 0.181,-0.115C0.186,-0.106 0.192,-0.099 0.2,-0.095C0.208,-0.09 0.217,-0.086 0.228,-0.084C0.239,-0.082 0.25,-0.081 0.261,-0.081C0.289,-0.081 0.311,-0.086 0.326,-0.095C0.341,-0.104 0.353,-0.116 0.36,-0.129C0.367,-0.141 0.372,-0.155 0.373,-0.168C0.375,-0.181 0.376,-0.192 0.376,-0.2L0.376,-0.253Z" style="fill:white;fill-rule:nonzero;"/>
                    </g>
                    <g transform="matrix(50,0,0,50,1591.232293,1870.607789)">
                        <path d="M0.234,-0.517L0.234,-0.672L0.092,-0.672L0.092,-0.517L0.006,-0.517L0.006,-0.422L0.092,-0.422L0.092,-0.117C0.092,-0.091 0.096,-0.07 0.105,-0.054C0.114,-0.038 0.126,-0.026 0.141,-0.017C0.155,-0.008 0.173,-0.003 0.193,0.001C0.212,0.004 0.233,0.005 0.255,0.005C0.269,0.005 0.283,0.005 0.298,0.004C0.313,0.003 0.326,0.002 0.338,-0L0.338,-0.11C0.331,-0.109 0.324,-0.108 0.317,-0.107C0.31,-0.106 0.302,-0.106 0.294,-0.106C0.27,-0.106 0.254,-0.11 0.246,-0.118C0.238,-0.126 0.234,-0.142 0.234,-0.166L0.234,-0.422L0.338,-0.422L0.338,-0.517L0.234,-0.517Z" style="fill:white;fill-rule:nonzero;"/>
                    </g>
                    <g transform="matrix(50,0,0,50,1608.832293,1870.607789)">
                        <path d="M0.2,-0.597L0.2,-0.714L0.058,-0.714L0.058,-0.597L0.2,-0.597ZM0.058,-0.517L0.058,-0L0.2,-0L0.2,-0.517L0.058,-0.517Z" style="fill:white;fill-rule:nonzero;"/>
                    </g>
                    <g transform="matrix(50,0,0,50,1621.732293,1870.607789)">
                        <path d="M0.18,-0.258C0.18,-0.279 0.182,-0.299 0.186,-0.319C0.19,-0.339 0.197,-0.357 0.207,-0.372C0.216,-0.387 0.229,-0.4 0.245,-0.41C0.261,-0.419 0.281,-0.424 0.305,-0.424C0.329,-0.424 0.349,-0.419 0.365,-0.41C0.382,-0.4 0.395,-0.387 0.405,-0.372C0.414,-0.357 0.421,-0.339 0.425,-0.319C0.429,-0.299 0.431,-0.279 0.431,-0.258C0.431,-0.237 0.429,-0.217 0.425,-0.198C0.421,-0.178 0.414,-0.16 0.405,-0.144C0.395,-0.129 0.382,-0.116 0.365,-0.107C0.349,-0.098 0.329,-0.093 0.305,-0.093C0.281,-0.093 0.261,-0.098 0.245,-0.107C0.229,-0.116 0.216,-0.129 0.207,-0.144C0.197,-0.16 0.19,-0.178 0.186,-0.198C0.182,-0.217 0.18,-0.237 0.18,-0.258ZM0.038,-0.258C0.038,-0.217 0.044,-0.179 0.057,-0.146C0.07,-0.113 0.088,-0.084 0.111,-0.06C0.134,-0.037 0.162,-0.019 0.195,-0.006C0.228,0.007 0.264,0.013 0.305,0.013C0.346,0.013 0.383,0.007 0.416,-0.006C0.449,-0.019 0.477,-0.037 0.5,-0.06C0.523,-0.084 0.541,-0.113 0.554,-0.146C0.567,-0.179 0.573,-0.217 0.573,-0.258C0.573,-0.299 0.567,-0.337 0.554,-0.37C0.541,-0.404 0.523,-0.433 0.5,-0.457C0.477,-0.48 0.449,-0.498 0.416,-0.512C0.383,-0.525 0.346,-0.531 0.305,-0.531C0.264,-0.531 0.228,-0.525 0.195,-0.512C0.162,-0.498 0.134,-0.48 0.111,-0.457C0.088,-0.433 0.07,-0.404 0.057,-0.37C0.044,-0.337 0.038,-0.299 0.038,-0.258Z" style="fill:white;fill-rule:nonzero;"/>
                    </g>
                    <g transform="matrix(50,0,0,50,1652.282293,1870.607789)">
                        <path d="M0.054,-0.517L0.054,-0L0.196,-0L0.196,-0.271C0.196,-0.324 0.205,-0.361 0.222,-0.385C0.239,-0.407 0.267,-0.419 0.306,-0.419C0.34,-0.419 0.364,-0.409 0.377,-0.388C0.39,-0.366 0.397,-0.335 0.397,-0.292L0.397,-0L0.539,-0L0.539,-0.318C0.539,-0.35 0.536,-0.379 0.53,-0.406C0.525,-0.432 0.515,-0.454 0.501,-0.473C0.487,-0.491 0.468,-0.505 0.444,-0.515C0.419,-0.526 0.388,-0.531 0.35,-0.531C0.32,-0.531 0.291,-0.524 0.262,-0.511C0.233,-0.497 0.21,-0.475 0.192,-0.445L0.189,-0.445L0.189,-0.517L0.054,-0.517Z" style="fill:white;fill-rule:nonzero;"/>
                    </g>
                    <g transform="matrix(50,0,0,50,1681.932293,1870.607789)">
                        <path d="M0.402,-0.314L0.171,-0.314C0.172,-0.324 0.174,-0.335 0.177,-0.348C0.181,-0.361 0.188,-0.373 0.197,-0.384C0.206,-0.395 0.217,-0.405 0.233,-0.413C0.248,-0.42 0.266,-0.424 0.289,-0.424C0.324,-0.424 0.349,-0.415 0.366,-0.396C0.384,-0.377 0.395,-0.35 0.402,-0.314ZM0.171,-0.224L0.544,-0.224C0.547,-0.264 0.543,-0.302 0.534,-0.339C0.525,-0.376 0.509,-0.408 0.488,-0.437C0.468,-0.466 0.441,-0.488 0.408,-0.506C0.375,-0.523 0.337,-0.531 0.293,-0.531C0.254,-0.531 0.218,-0.524 0.185,-0.51C0.153,-0.496 0.125,-0.477 0.102,-0.453C0.079,-0.428 0.061,-0.399 0.048,-0.366C0.035,-0.333 0.029,-0.297 0.029,-0.258C0.029,-0.218 0.035,-0.181 0.048,-0.148C0.06,-0.115 0.077,-0.086 0.1,-0.062C0.123,-0.038 0.15,-0.019 0.183,-0.007C0.216,0.007 0.252,0.013 0.293,0.013C0.352,0.013 0.402,-0 0.443,-0.027C0.484,-0.054 0.515,-0.098 0.535,-0.16L0.41,-0.16C0.405,-0.144 0.393,-0.129 0.372,-0.115C0.351,-0.1 0.327,-0.093 0.298,-0.093C0.258,-0.093 0.227,-0.103 0.206,-0.124C0.185,-0.145 0.173,-0.178 0.171,-0.224Z" style="fill:white;fill-rule:nonzero;"/>
                    </g>
                    <g transform="matrix(50,0,0,50,1710.632293,1870.607789)">
                        <path d="M0.054,-0.517L0.054,-0L0.196,-0L0.196,-0.271C0.196,-0.324 0.205,-0.361 0.222,-0.385C0.239,-0.407 0.267,-0.419 0.306,-0.419C0.34,-0.419 0.364,-0.409 0.377,-0.388C0.39,-0.366 0.397,-0.335 0.397,-0.292L0.397,-0L0.539,-0L0.539,-0.318C0.539,-0.35 0.536,-0.379 0.53,-0.406C0.525,-0.432 0.515,-0.454 0.501,-0.473C0.487,-0.491 0.468,-0.505 0.444,-0.515C0.419,-0.526 0.388,-0.531 0.35,-0.531C0.32,-0.531 0.291,-0.524 0.262,-0.511C0.233,-0.497 0.21,-0.475 0.192,-0.445L0.189,-0.445L0.189,-0.517L0.054,-0.517Z" style="fill:white;fill-rule:nonzero;"/>
                    </g>
                </g>
                <g transform="matrix(1,0,0,1,0,92)">
                    <g transform="matrix(2.362205,0,0,7.38189,-1965.385827,-12093.681102)">
                        <rect x="1445" y="1895" width="5" height="8" style="fill:white;"/>
                    </g>
                    <g transform="matrix(2.362205,0,0,7.38189,-1952.385827,-12093.681102)">
                        <rect x="1445" y="1895" width="5" height="8" style="fill:white;"/>
                    </g>
                    <g transform="matrix(2.362205,0,0,7.38189,-1939.385827,-12093.681102)">
                        <rect x="1445" y="1895" width="5" height="8" style="fill:white;"/>
                    </g>
                </g>
            </g>
        </g>
    </g>
</svg>
